# xmcd CD database file
#
# Track frame offsets:
#	150
#	15877
#	31109
#	47499
#	60864
#	75429
#	92511
#	112969
#	126538
#	140309
#	159981
#
# Disc length: 2344 seconds
#
# Revision: 0
# Processed by: cddbd v1.5.2PL0 Copyright (c) Steve Scherf et al.
# Submitted via: CDex 1.51
#
DISCID=6f09260b
DTITLE=Hoodoos - The Hoodoos
DYEAR=2002
DGENRE=Blues
TTITLE0=Movieland Blues
TTITLE1=Miss the Love
TTITLE2=Charlene
TTITLE3=Meet Me in the Mornin'
TTITLE4=The rest of My Life
TTITLE5=Hey Boogie
TTITLE6=Hide My Heart
TTITLE7=Crazy Little Dancin' Queen
TTITLE8=Somewhere in the Middle of the Blues
TTITLE9=Blue
TTITLE10=She's the One
EXTD=YEAR: 2002
EXTT0=
EXTT1=
EXTT2=
EXTT3=
EXTT4=
EXTT5=
EXTT6=
EXTT7=
EXTT8=
EXTT9=
EXTT10=
PLAYORDER=
